<svg xmlns="http://www.w3.org/2000/svg" width="40" height="40" viewBox="0 0 40 40">
  <defs>
    <style>
      .cls-1 {
        fill: #7f7f7f;
        fill-rule: evenodd;
      }
    </style>
  </defs>
  <path class="cls-1" d="M28.769,12.229a4.19,4.19,0,0,0-5.931,0L11.964,23.1a0.545,0.545,0,0,0-.154.312L11,29.38a0.543,0.543,0,0,0,.154.458,0.553,0.553,0,0,0,.385.162,0.446,0.446,0,0,0,.073,0l3.595-.486a0.547,0.547,0,0,0-.146-1.085l-2.883.389,0.563-4.162,4.38,4.381a0.554,0.554,0,0,0,.385.162,0.536,0.536,0,0,0,.385-0.162L28.769,18.16A4.189,4.189,0,0,0,28.769,12.229Zm-5.72,1.336,1.826,1.826-9.923,9.924-1.826-1.826ZM17.515,27.874l-1.785-1.786,9.923-9.924,1.785,1.786ZM28.2,17.168L23.83,12.8A3.1,3.1,0,0,1,28.2,17.168Z"/>
</svg>
