<svg xmlns="http://www.w3.org/2000/svg" width="40" height="40" viewBox="0 0 40 40">
  <defs>
    <style>
      .cls-1 {
        fill: #7f7f7f;
        fill-rule: evenodd;
      }
    </style>
  </defs>
  <path class="cls-1" d="M30.961,9H10.039A2.045,2.045,0,0,0,8,11.046V23.32a2.045,2.045,0,0,0,2.039,2.046h1.192v5.05a0.583,0.583,0,0,0,.359.539,0.58,0.58,0,0,0,.634-0.126l5.444-5.462H30.961A2.045,2.045,0,0,0,33,23.32V11.046A2.045,2.045,0,0,0,30.961,9Zm0,15.2H17.427a0.577,0.577,0,0,0-.39.152l0,0-0.021.02-4.619,4.634V24.782a0.434,0.434,0,0,0,0-.054,0.582,0.582,0,0,0-.579-0.529H10.039a0.879,0.879,0,0,1-.876-0.88V11.046a0.879,0.879,0,0,1,.876-0.88H30.961a0.879,0.879,0,0,1,.876.88V23.32h0A0.879,0.879,0,0,1,30.961,24.2ZM16.5,13.26H13.107a0.583,0.583,0,0,0,0,1.167H16.5A0.583,0.583,0,0,0,16.5,13.26ZM22.538,16.6H13.107a0.583,0.583,0,0,0,0,1.167h9.431A0.583,0.583,0,0,0,22.538,16.6Zm5.355-3.339h-8a0.583,0.583,0,0,0,0,1.167h8A0.583,0.583,0,0,0,27.893,13.26Zm0,3.339h-2.1a0.583,0.583,0,0,0,0,1.167h2.1A0.583,0.583,0,0,0,27.893,16.6Zm-9.522,3.34H13.107a0.583,0.583,0,0,0,0,1.167h5.265A0.583,0.583,0,0,0,18.371,19.939Zm9.522,0H21.461a0.583,0.583,0,0,0,0,1.167h6.433A0.583,0.583,0,0,0,27.893,19.939Z"/>
</svg>
